<?xml version="1.0" encoding="utf-8"?>
<!-- Generator: Adobe Illustrator 16.0.0, SVG Export Plug-In . SVG Version: 6.00 Build 0)  -->
<!DOCTYPE svg PUBLIC "-//W3C//DTD SVG 1.1 Tiny//EN" "http://www.w3.org/Graphics/SVG/1.1/DTD/svg11-tiny.dtd">
<svg version="1.1" baseProfile="tiny" id="Layer_1" xmlns="http://www.w3.org/2000/svg" xmlns:xlink="http://www.w3.org/1999/xlink"
	 x="0px" y="0px" width="24px" height="24px" viewBox="0 0 24 24" xml:space="preserve">
<g>
	<path d="M12.065,21.956c-0.052,0-0.104-0.011-0.153-0.031C11.45,21.733,0.609,17.127,0.609,8.04c0-3.306,2.69-5.996,5.996-5.996
		c2.388,0,4.483,1.386,5.443,3.485c0.948-2.074,3.061-3.485,5.403-3.485c3.274,0,5.938,2.664,5.938,5.938
		c0,9.258-11.062,13.897-11.174,13.943C12.169,21.945,12.117,21.956,12.065,21.956z M6.605,2.845c-2.865,0-5.195,2.33-5.195,5.195
		c0,7.988,9.34,12.485,10.656,13.079c1.308-0.584,10.523-4.996,10.523-13.137c0-2.833-2.305-5.138-5.138-5.138
		c-2.385,0-4.492,1.688-5.011,4.014c-0.041,0.184-0.227,0.297-0.391,0.313c-0.186,0-0.348-0.129-0.39-0.31
		C11.111,4.496,9.032,2.845,6.605,2.845z"/>
</g>
</svg>
