<svg xmlns="http://www.w3.org/2000/svg" viewBox="0 0 442.94 396.6"><g id="Layer_2" data-name="Layer 2"><g id="Layer_1-2" data-name="Layer 1"><path d="M396.77,281.2V198.4a11.33,11.33,0,0,0-3.4-8.2,11.73,11.73,0,0,0-8.3-3.4H233.37V115.6a59,59,0,1,0-23.3-.2v71.2H58.37a11.61,11.61,0,0,0-11.7,11.6V281a58.25,58.25,0,1,0,23.2,0V210h140v71.2a58.25,58.25,0,1,0,23.2,0V210h140v71.2a58.3,58.3,0,1,0,65.5,35,56.81,56.81,0,0,0-41.8-35Zm-210-222.9A35.37,35.37,0,0,1,197,33.5a35,35,0,0,1,24.8-10.2,35.37,35.37,0,0,1,24.8,10.2,35,35,0,0,1,10.2,24.8,35.37,35.37,0,0,1-10.2,24.8,35.1,35.1,0,0,1-59.8-24.8Zm-93.4,280a35.07,35.07,0,1,1-35-35,35.17,35.17,0,0,1,35,35Zm163.4,0a35.37,35.37,0,0,1-10.2,24.8,35,35,0,0,1-24.8,10.2A35.37,35.37,0,0,1,197,363.1a35,35,0,0,1-10.2-24.8A35.37,35.37,0,0,1,197,313.5a35,35,0,0,1,49.5.1A35.85,35.85,0,0,1,256.77,338.3Zm128.3,35a35,35,0,1,1,0-70,35.37,35.37,0,0,1,24.8,10.2,35.1,35.1,0,0,1-24.8,59.8Z"/></g></g></svg>